HIERARCHY
ROOT pelvis
{
	OFFSET 0.000000 0.000000 0.000000
	CHANNELS 6 Xposition Yposition Zposition Zrotation Xrotation Yrotation
	JOINT lfemur
	{
		OFFSET 11.446000 0.000000 0.000000
		CHANNELS 3 Zrotation Xrotation Yrotation
		JOINT ltibia
		{
			OFFSET 0.000000 -42.030400 0.000000
			CHANNELS 3 Zrotation Xrotation Yrotation
			JOINT lfoot
			{
				OFFSET 0.000000 -39.930200 0.000000
				CHANNELS 3 Zrotation Xrotation Yrotation
				JOINT ltoes
				{
					OFFSET 0.000000 0.000000 11.775800
					CHANNELS 3 Zrotation Xrotation Yrotation
					End Site
					{
					    OFFSET 0.000000 0.000000 5.000000
					}
				}
			}
		}
	}
	JOINT rfemur
	{
		OFFSET -11.446000 0.000000 0.000000
		CHANNELS 3 Zrotation Xrotation Yrotation
		JOINT rtibia
		{
			OFFSET 0.000000 -42.030400 0.000000
			CHANNELS 3 Zrotation Xrotation Yrotation
			JOINT rfoot
			{
				OFFSET 0.000000 -39.930200 0.000000
				CHANNELS 3 Zrotation Xrotation Yrotation
				JOINT rtoes
				{
					OFFSET 0.000000 0.000000 11.775800
					CHANNELS 3 Zrotation Xrotation Yrotation
					End Site
					{
					    OFFSET 0.000000 0.000000 5.000000
					}
				}
			}
		}
	}
	JOINT thorax
	{
		OFFSET 0.000000 11.255600 -5.000000
		CHANNELS 3 Zrotation Xrotation Yrotation
		JOINT head
		{
			OFFSET 0.000000 43.799300 0.000000
			CHANNELS 3 Zrotation Xrotation Yrotation
			End Site
			{
			    OFFSET 0.000000 5.000000 0.000000
			}
		}
		JOINT lclavicle
		{
			OFFSET 0.000000 39.863000 0.000000
			CHANNELS 3 Zrotation Xrotation Yrotation
			JOINT lhumerus
			{
				OFFSET 17.380600 4.958300 0.000000
				CHANNELS 3 Zrotation Xrotation Yrotation
				JOINT lradius
				{
					OFFSET 0.000000 -27.561300 0.000000
					CHANNELS 3 Zrotation Xrotation Yrotation
					JOINT lhand
					{
						OFFSET 0.000000 -26.933000 0.000000
						CHANNELS 3 Zrotation Xrotation Yrotation
						End Site
						{
						    OFFSET 0.000000 -5.000000 0.000000
						}
					}
				}
			}
		}
		JOINT rclavicle
		{
			OFFSET 0.000000 39.863000 0.000000
			CHANNELS 3 Zrotation Xrotation Yrotation
			JOINT rhumerus
			{
				OFFSET -17.380600 4.958300 0.000000
				CHANNELS 3 Zrotation Xrotation Yrotation
				JOINT rradius
				{
					OFFSET 0.000000 -27.561300 0.000000
					CHANNELS 3 Zrotation Xrotation Yrotation
					JOINT rhand
					{
						OFFSET 0.000000 -26.933000 0.000000
						CHANNELS 3 Zrotation Xrotation Yrotation
						End Site
						{
						    OFFSET 0.000000 -5.000000 0.000000
						}
					}
				}
			}
		}
	}
}
MOTION
Frames:	4
Frame Time:	0.0333333
6.74645 87.544 -99.6993 -0.187449 4.9937 -1.58211 -0.604504 -9.12574 -2.95906 0.0680609 21.1381 -0.275416 1.20026 -3.09349 5.82522 -1.73937e-016 -5 -0 2.06214 -9.24977 5.63456 -0.0654675 21.8915 0.121652 -1.20357 -2.97597 -10.4271 -5.96534e-017 -5 1.59635e-015 1.14105 5.78622 -1.83718 1.92272 -15.2244 -8.25142 -2.20695e-032 -3.18055e-015 -3.97569e-016 10.5861 -7.16777 -21.4847 15.1224 -22.7213 6.40452 -0.0708777 -1.05695 -7.54462 -2.20695e-032 -3.18055e-015 -3.97569e-016 -8.85815 -3.43187 15.9248 -18.8411 -27.0785 -8.64144 0.0359695 -0.747385 5.32894 
6.74108 87.5053 -99.7289 -0.303854 4.99524 -1.12588 -0.508356 -9.38993 -3.08909 0.0699664 21.5012 -0.272954 1.19093 -3.23743 5.40035 3.35438e-017 -5 9.9772e-017 2.1471 -9.21892 5.42735 -0.066192 22.0218 0.114052 -1.22425 -3.11899 -10.5895 -3.87657e-016 -5 2.39453e-015 1.25292 5.93934 -1.93856 1.97169 -15.6418 -8.43425 -1.98785e-016 4.77083e-015 -3.97569e-016 10.4894 -7.49883 -21.9407 15.111 -22.7071 6.39792 -0.0550128 -0.929245 -6.62874 -1.98785e-016 4.77083e-015 -3.97569e-016 -8.87089 -3.93474 15.5565 -18.7201 -26.9446 -8.56548 0.0374674 -0.763243 5.44202 
6.79325 87.5289 -99.6573 -0.266148 5.02871 -0.612056 -0.617337 -9.52091 -3.1424 0.0715521 21.4882 -0.277484 1.18766 -3.17435 5.20854 -2.00024e-016 -5 -2.99316e-016 2.03904 -9.14555 5.17805 -0.0655588 21.9252 0.110805 -1.23885 -3.13964 -10.9373 -5.26788e-016 -5 7.98176e-016 1.24963 5.82998 -2.25705 1.99586 -15.7033 -8.64707 2.98177e-016 1.59028e-015 3.97569e-016 10.3534 -7.51345 -21.9605 15.3765 -23.035 6.55086 -0.062149 -0.987996 -7.05035 2.98177e-016 1.59028e-015 3.97569e-016 -9.01448 -3.87955 15.9602 -19.0226 -27.2782 -8.75545 0.019413 -0.64783 4.61837 
6.83263 87.519 -99.5778 -0.161943 4.96999 -0.124167 -0.767113 -9.37323 -3.41392 0.0728145 21.3702 -0.282541 1.17427 -3.12297 4.90512 6.58485e-017 -5 -9.9772e-017 1.87394 -9.0387 4.84961 -0.0671847 22.225 0.104978 -1.27823 -3.40997 -11.0109 -1.29219e-016 -5 7.98176e-016 1.03844 5.80292 -2.31184 2.08898 -15.7715 -9.09503 1.98785e-016 0 -7.95139e-016 10.3758 -7.57771 -22.4872 15.2468 -22.8752 6.47601 -0.0399605 -0.788396 -5.62094 1.98785e-016 0 -7.95139e-016 -8.95953 -3.92612 16.2374 -19.1121 -27.3763 -8.81187 0.026256 -0.663309 4.72781 
